<svg xmlns="http://www.w3.org/2000/svg" viewBox="0 0 24 24" fill="#25D366">
  <path d="M12 2C6.48 2 2 6.48 2 12c0 1.77.46 3.44 1.27 4.9L2 22l5.23-1.37A9.94 9.94 0 0012 22c5.52 0 10-4.48 10-10S17.52 2 12 2zm0 18c-1.61 0-3.13-.39-4.47-1.08l-.32-.17-3.1.81.83-3.02-.2-.31A7.93 7.93 0 014 12c0-4.41 3.59-8 8-8s8 3.59 8 8-3.59 8-8 8zm4.26-5.74c-.23-.11-1.35-.67-1.56-.75-.21-.08-.36-.11-.51.11-.15.21-.59.75-.72.9-.13.15-.26.17-.49.06-.23-.11-.96-.35-1.83-1.11-.68-.6-1.14-1.34-1.27-1.56-.13-.23-.01-.35.1-.46.1-.1.23-.26.34-.39.11-.13.15-.21.23-.36.08-.15.04-.28-.02-.39-.06-.11-.51-1.23-.7-1.68-.18-.43-.36-.37-.51-.38h-.43c-.15 0-.39.06-.59.28-.2.23-.78.76-.78 1.85s.8 2.14.91 2.29c.11.15 1.56 2.38 3.78 3.34.53.23.94.37 1.26.48.53.17 1.01.15 1.39.09.42-.06 1.35-.55 1.54-1.08.19-.53.19-.98.13-1.08-.05-.1-.21-.15-.44-.26z"></path>
</svg>